<mxfile host="65bd71144e">
    <diagram id="tN9_V-DUFD7T969ZU5oM" name="Page-1">
        <mxGraphModel dx="820" dy="1630" grid="1" gridSize="10" guides="1" tooltips="1" connect="1" arrows="1" fold="1" page="1" pageScale="1" pageWidth="827" pageHeight="1169" math="0" shadow="0">
            <root>
                <mxCell id="0"/>
                <mxCell id="1" parent="0"/>
                <mxCell id="2" value="&lt;div style=&quot;text-align: center&quot;&gt;&lt;span&gt;&lt;u&gt;User&lt;/u&gt;&lt;/span&gt;&lt;/div&gt;&lt;div style=&quot;text-align: center&quot;&gt;&lt;span&gt;&lt;u&gt;&lt;br&gt;&lt;/u&gt;&lt;/span&gt;&lt;/div&gt;&lt;blockquote style=&quot;margin: 0 0 0 40px ; border: none ; padding: 0px&quot;&gt;&lt;div&gt;&lt;span&gt;&lt;b&gt;table : users&lt;/b&gt;&lt;/span&gt;&lt;/div&gt;&lt;/blockquote&gt;&lt;br&gt;&lt;div&gt;&lt;ul&gt;&lt;li&gt;userid&amp;nbsp; &amp;nbsp; &amp;nbsp; &amp;nbsp; &amp;nbsp; &lt;span style=&quot;white-space: pre&quot;&gt;&#9;&lt;span style=&quot;white-space: pre&quot;&gt;&#9;&lt;/span&gt;&lt;/span&gt;int(11)&amp;nbsp;&lt;/li&gt;&lt;li&gt;firstname&amp;nbsp; &amp;nbsp; &amp;nbsp; &lt;span style=&quot;white-space: pre&quot;&gt;&#9;&lt;span style=&quot;white-space: pre&quot;&gt;&#9;&lt;/span&gt;&lt;/span&gt;varchar(255)&lt;/li&gt;&lt;li&gt;surname&amp;nbsp; &amp;nbsp; &amp;nbsp; &amp;nbsp;&lt;span style=&quot;white-space: pre&quot;&gt;&#9;&lt;span style=&quot;white-space: pre&quot;&gt;&#9;&lt;/span&gt;&lt;/span&gt;varchar(255)&lt;/li&gt;&lt;li&gt;email&amp;nbsp; &amp;nbsp; &amp;nbsp; &amp;nbsp; &amp;nbsp; &amp;nbsp; &lt;span style=&quot;white-space: pre&quot;&gt;&#9;&lt;span style=&quot;white-space: pre&quot;&gt;&#9;&lt;/span&gt;&lt;/span&gt;varchar(255)&lt;/li&gt;&lt;li&gt;contactnu&amp;nbsp; &amp;nbsp; &amp;nbsp;&lt;span style=&quot;white-space: pre&quot;&gt;&#9;&lt;span style=&quot;white-space: pre&quot;&gt;&#9;&lt;/span&gt;&lt;/span&gt;varchar(255)&lt;/li&gt;&lt;li&gt;passkey&amp;nbsp; &amp;nbsp; &amp;nbsp; &amp;nbsp; &amp;nbsp;&lt;span style=&quot;white-space: pre&quot;&gt;&#9;&lt;/span&gt;&lt;span style=&quot;white-space: pre&quot;&gt;&#9;&lt;/span&gt;blob&lt;/li&gt;&lt;li&gt;popi_compliance &lt;span style=&quot;white-space: pre&quot;&gt;&#9;&lt;/span&gt;int(11)&lt;/li&gt;&lt;li&gt;active&amp;nbsp; &amp;nbsp; &amp;nbsp; &amp;nbsp; &amp;nbsp; &lt;span style=&quot;white-space: pre&quot;&gt;&#9;&lt;/span&gt;&lt;span style=&quot;white-space: pre&quot;&gt;&#9;&lt;/span&gt;int(11)&lt;/li&gt;&lt;li&gt;system_core&amp;nbsp; &amp;nbsp; &amp;nbsp;&lt;span style=&quot;white-space: pre&quot;&gt;&#9;&lt;/span&gt;int(11)&lt;/li&gt;&lt;li&gt;createdon&amp;nbsp; &amp;nbsp; &amp;nbsp; &amp;nbsp;&lt;span style=&quot;white-space: pre&quot;&gt;&#9;&lt;/span&gt;&lt;span style=&quot;white-space: pre&quot;&gt;&#9;&lt;/span&gt;datetime&lt;/li&gt;&lt;li&gt;modifiedon&amp;nbsp; &amp;nbsp; &amp;nbsp; &lt;span style=&quot;white-space: pre&quot;&gt;&#9;&lt;/span&gt;datetime&lt;/li&gt;&lt;li&gt;deleted&amp;nbsp; &amp;nbsp; &amp;nbsp; &amp;nbsp; &amp;nbsp;&lt;span style=&quot;white-space: pre&quot;&gt;&#9;&lt;/span&gt;&lt;span style=&quot;white-space: pre&quot;&gt;&#9;&lt;/span&gt;int(11)&lt;/li&gt;&lt;/ul&gt;&lt;/div&gt;&lt;div&gt;&lt;br&gt;&lt;/div&gt;" style="rounded=1;whiteSpace=wrap;html=1;align=left;" vertex="1" parent="1">
                    <mxGeometry x="40" y="-40" width="240" height="390" as="geometry"/>
                </mxCell>
                <mxCell id="3" value="&lt;div style=&quot;text-align: center&quot;&gt;&lt;u&gt;Invite&lt;/u&gt;&lt;br&gt;&lt;/div&gt;&lt;div style=&quot;text-align: center&quot;&gt;&lt;u&gt;&lt;br&gt;&lt;/u&gt;&lt;/div&gt;&lt;div&gt;&lt;b&gt;&lt;span style=&quot;white-space: pre&quot;&gt;&#9;&lt;/span&gt;table : invites&lt;/b&gt;&lt;br&gt;&lt;ul&gt;&lt;li&gt;inviteid&amp;nbsp; &amp;nbsp; &lt;span style=&quot;white-space: pre&quot;&gt;&#9;&lt;/span&gt;&lt;span style=&quot;white-space: pre&quot;&gt;&#9;&lt;/span&gt;int(11)&lt;/li&gt;&lt;li&gt;hierachyid&amp;nbsp; &lt;span style=&quot;white-space: pre&quot;&gt;&#9;&lt;/span&gt;int(11)&lt;/li&gt;&lt;li&gt;from_userid &lt;span style=&quot;white-space: pre&quot;&gt;&#9;&lt;/span&gt;int(11)&lt;/li&gt;&lt;li&gt;to_userid&amp;nbsp; &amp;nbsp;&lt;span style=&quot;white-space: pre&quot;&gt;&#9;&lt;/span&gt;int(11)&lt;/li&gt;&lt;li&gt;appid&amp;nbsp; &amp;nbsp; &amp;nbsp; &amp;nbsp;&lt;span style=&quot;white-space: pre&quot;&gt;&#9;&lt;/span&gt;int(11)&lt;/li&gt;&lt;li&gt;email&amp;nbsp; &amp;nbsp; &amp;nbsp; &amp;nbsp;&lt;span style=&quot;white-space: pre&quot;&gt;&#9;&lt;/span&gt;text&lt;/li&gt;&lt;li&gt;datedon&amp;nbsp; &amp;nbsp; &amp;nbsp;&lt;span style=&quot;white-space: pre&quot;&gt;&#9;&lt;/span&gt;datetime&lt;/li&gt;&lt;li&gt;accepted&amp;nbsp; &amp;nbsp; &lt;span style=&quot;white-space: pre&quot;&gt;&#9;&lt;/span&gt;int(11)&lt;/li&gt;&lt;/ul&gt;&lt;/div&gt;" style="rounded=1;whiteSpace=wrap;html=1;align=left;" vertex="1" parent="1">
                    <mxGeometry x="40" y="400" width="240" height="280" as="geometry"/>
                </mxCell>
                <mxCell id="4" value="&lt;div style=&quot;text-align: center&quot;&gt;&lt;u&gt;Notification&lt;/u&gt;&lt;br&gt;&lt;/div&gt;&lt;div style=&quot;text-align: center&quot;&gt;&lt;u&gt;&lt;br&gt;&lt;/u&gt;&lt;/div&gt;&lt;div&gt;&lt;b&gt;&lt;span style=&quot;white-space: pre&quot;&gt;&#9;&lt;/span&gt;table : notifications&lt;/b&gt;&lt;br&gt;&lt;ul&gt;&lt;li&gt;noteid&amp;nbsp; &amp;nbsp;&amp;nbsp;&lt;span style=&quot;white-space: pre&quot;&gt;&#9;&lt;/span&gt;&lt;span style=&quot;white-space: pre&quot;&gt;&#9;&lt;/span&gt;int(11)&lt;/li&gt;&lt;li&gt;hierachyid&amp;nbsp; &lt;span style=&quot;white-space: pre&quot;&gt;&#9;&lt;/span&gt;int(11)&lt;/li&gt;&lt;li&gt;from_userid &lt;span style=&quot;white-space: pre&quot;&gt;&#9;&lt;/span&gt;int(11)&lt;/li&gt;&lt;li&gt;to_userid&amp;nbsp; &amp;nbsp;&lt;span style=&quot;white-space: pre&quot;&gt;&#9;&lt;/span&gt;int(11)&lt;/li&gt;&lt;li&gt;appid&amp;nbsp; &amp;nbsp; &amp;nbsp; &amp;nbsp;&lt;span style=&quot;white-space: pre&quot;&gt;&#9;&lt;/span&gt;int(11)&lt;/li&gt;&lt;li&gt;request&amp;nbsp; &amp;nbsp; &amp;nbsp; &amp;nbsp;&lt;span style=&quot;white-space: pre&quot;&gt;&#9;&lt;/span&gt;text&lt;/li&gt;&lt;li&gt;datedon&amp;nbsp; &amp;nbsp; &amp;nbsp;&lt;span style=&quot;white-space: pre&quot;&gt;&#9;&lt;/span&gt;datetime&lt;/li&gt;&lt;li&gt;noticed&amp;nbsp; &amp;nbsp;&amp;nbsp;&lt;span style=&quot;white-space: pre&quot;&gt;&#9;&lt;/span&gt;int(11)&lt;/li&gt;&lt;/ul&gt;&lt;/div&gt;" style="rounded=1;whiteSpace=wrap;html=1;align=left;" vertex="1" parent="1">
                    <mxGeometry x="360" y="400" width="240" height="280" as="geometry"/>
                </mxCell>
                <mxCell id="5" value="&lt;div style=&quot;text-align: center&quot;&gt;&lt;u&gt;Hierachy Users&lt;/u&gt;&lt;br&gt;&lt;/div&gt;&lt;div style=&quot;text-align: center&quot;&gt;&lt;u&gt;&lt;br&gt;&lt;/u&gt;&lt;/div&gt;&lt;div&gt;&lt;b&gt;&lt;span&gt;&#9;&lt;/span&gt;&lt;span style=&quot;white-space: pre&quot;&gt;&#9;&lt;/span&gt;table : hierachy_users&lt;/b&gt;&lt;ul&gt;&lt;li&gt;hierachyid&amp;nbsp; &amp;nbsp;&lt;span style=&quot;white-space: pre&quot;&gt;&#9;&lt;/span&gt;&lt;span style=&quot;white-space: pre&quot;&gt;&#9;&lt;/span&gt;int(11)&lt;/li&gt;&lt;li&gt;| userid&amp;nbsp; &amp;nbsp; &amp;nbsp; &amp;nbsp;&lt;span style=&quot;white-space: pre&quot;&gt;&#9;&lt;/span&gt;&lt;span style=&quot;white-space: pre&quot;&gt;&#9;&lt;/span&gt;int(11)&lt;/li&gt;&lt;li&gt;| maintainedby &lt;span style=&quot;white-space: pre&quot;&gt;&#9;&lt;/span&gt;int(11)&lt;/li&gt;&lt;li&gt;| roleid&amp;nbsp; &amp;nbsp; &amp;nbsp; &amp;nbsp;&lt;span style=&quot;white-space: pre&quot;&gt;&#9;&lt;/span&gt;&lt;span style=&quot;white-space: pre&quot;&gt;&#9;&lt;/span&gt;int(11)&lt;/li&gt;&lt;li&gt;| createdon&amp;nbsp; &amp;nbsp; &lt;span style=&quot;white-space: pre&quot;&gt;&#9;&lt;/span&gt;&lt;span style=&quot;white-space: pre&quot;&gt;&#9;&lt;/span&gt;datetime&lt;/li&gt;&lt;li&gt;| updatedon&amp;nbsp; &amp;nbsp; &lt;span style=&quot;white-space: pre&quot;&gt;&#9;&lt;/span&gt;&lt;span style=&quot;white-space: pre&quot;&gt;&#9;&lt;/span&gt;datetime&lt;/li&gt;&lt;li&gt;| personnel&amp;nbsp; &amp;nbsp; &lt;span style=&quot;white-space: pre&quot;&gt;&#9;&lt;/span&gt;&lt;span style=&quot;white-space: pre&quot;&gt;&#9;&lt;/span&gt;int(11)&lt;/li&gt;&lt;li&gt;| invite&amp;nbsp; &amp;nbsp; &amp;nbsp; &amp;nbsp;&lt;span style=&quot;white-space: pre&quot;&gt;&#9;&lt;/span&gt;&lt;span style=&quot;white-space: pre&quot;&gt;&#9;&lt;/span&gt;int(11)&lt;/li&gt;&lt;li&gt;| active&amp;nbsp; &amp;nbsp; &amp;nbsp; &amp;nbsp;&lt;span style=&quot;white-space: pre&quot;&gt;&#9;&lt;/span&gt;&lt;span style=&quot;white-space: pre&quot;&gt;&#9;&lt;/span&gt;int(11)&lt;/li&gt;&lt;/ul&gt;&lt;/div&gt;" style="rounded=1;whiteSpace=wrap;html=1;align=left;" vertex="1" parent="1">
                    <mxGeometry x="680" y="400" width="240" height="280" as="geometry"/>
                </mxCell>
                <mxCell id="6" value="CREATE : Hierachy User&lt;br&gt;&lt;br&gt;&lt;ul&gt;&lt;li style=&quot;text-align: left&quot;&gt;userid&lt;/li&gt;&lt;li style=&quot;text-align: left&quot;&gt;hierachyid&lt;/li&gt;&lt;li style=&quot;text-align: left&quot;&gt;detid&lt;/li&gt;&lt;li style=&quot;text-align: left&quot;&gt;roleid&lt;/li&gt;&lt;li style=&quot;text-align: left&quot;&gt;personnel&lt;/li&gt;&lt;li style=&quot;text-align: left&quot;&gt;invite&lt;/li&gt;&lt;/ul&gt;" style="rounded=1;whiteSpace=wrap;html=1;" vertex="1" parent="1">
                    <mxGeometry x="400" y="-40" width="240" height="280" as="geometry"/>
                </mxCell>
            </root>
        </mxGraphModel>
    </diagram>
</mxfile>